<?xml version="1.0" standalone="no"?>
<!DOCTYPE svg PUBLIC "-//W3C//DTD SVG 20010904//EN"
 "http://www.w3.org/TR/2001/REC-SVG-20010904/DTD/svg10.dtd">
<svg version="1.0" xmlns="http://www.w3.org/2000/svg"
 width="1000.000000pt" height="224.000000pt" viewBox="0 0 1000.000000 224.000000"
 preserveAspectRatio="xMidYMid meet">

<g transform="translate(0.000000,224.000000) scale(0.100000,-0.100000)"
fill="#000000" stroke="none">
<path d="M855 2230 c-334 -16 -790 -52 -802 -64 -26 -25 -57 -410 -49 -601 5
-134 29 -363 42 -406 3 -12 28 -19 102 -27 289 -35 656 -62 1327 -97 601 -32
964 -60 979 -75 13 -13 16 -586 4 -631 -9 -30 12 -27 -353 -50 -498 -31 -1560
-17 -2008 26 l-57 6 0 -129 0 -130 73 -6 c519 -46 1471 -58 2062 -26 208 11
588 40 593 45 9 9 33 220 43 387 10 146 10 227 0 365 -12 182 -33 369 -43 378
-2 3 -56 12 -119 20 -298 38 -644 66 -1134 90 -597 29 -722 36 -935 51 -118 9
-217 17 -219 19 -2 2 -8 65 -13 140 -9 130 1 397 16 412 3 4 81 12 174 19 613
46 1253 46 1942 -1 118 -8 225 -15 238 -15 22 0 23 1 20 128 l-3 127 -150 11
c-456 35 -1328 52 -1730 34z"/>
<path d="M8045 2230 c-367 -17 -791 -52 -805 -66 -5 -5 -16 -67 -26 -139 -25
-185 -26 -552 0 -731 10 -72 21 -136 25 -142 15 -25 621 -74 1421 -117 474
-25 842 -49 933 -61 40 -5 48 -10 55 -32 9 -35 9 -556 -1 -603 l-7 -37 -93 -6
c-628 -44 -1314 -46 -2037 -6 -96 6 -199 13 -227 16 l-53 5 0 -130 c0 -72 3
-131 8 -131 4 0 98 -7 210 -15 515 -37 1388 -44 1917 -15 191 10 588 40 593
44 1 2 10 54 20 117 24 158 24 741 0 902 -9 60 -18 111 -21 113 -5 5 -193 30
-377 48 -260 27 -551 45 -1285 81 -331 16 -737 44 -744 51 -20 19 -24 456 -5
531 8 29 13 29 299 49 507 34 1241 29 1830 -11 116 -8 220 -15 233 -15 22 0
23 1 20 128 l-3 127 -150 11 c-456 35 -1328 52 -1730 34z"/>
<path d="M3150 2065 l0 -145 170 0 170 0 0 145 0 145 -170 0 -170 0 0 -145z"/>
<path d="M4313 1672 l538 -538 -558 -552 -558 -551 205 0 205 0 490 479 490
480 251 0 252 0 488 -480 489 -479 205 0 205 0 -558 552 -559 552 540 538 540
537 -202 0 -203 0 -472 -463 -471 -464 -128 -6 c-70 -4 -184 -4 -253 0 l-127
6 -473 463 -474 464 -200 0 -200 0 538 -538z"/>
<path d="M3150 930 l0 -900 170 0 170 0 0 900 0 900 -170 0 -170 0 0 -900z"/>
</g>
</svg>
